<svg width="28" height="25" viewBox="0 0 28 25" fill="none" xmlns="http://www.w3.org/2000/svg">
<path d="M23.9568 15.8009C23.8694 15.6496 23.67 15.6079 23.5292 15.7113L12.0822 24.1192C11.8538 24.287 11.9724 24.6491 12.2559 24.6491H26.531C27.6607 24.6491 28.3664 23.4257 27.8008 22.4478L23.9568 15.8009Z" fill="white"/>
<path d="M19.1309 7.90516C19.2423 7.78711 19.2629 7.60987 19.1814 7.46946L15.2731 0.730939C14.7072 -0.244808 13.2976 -0.243355 12.7337 0.733556L0.198661 22.4488C-0.365855 23.4267 0.339923 24.6491 1.46911 24.6491H2.69667C3.10045 24.6491 3.48638 24.4826 3.76352 24.1889L19.1309 7.90516Z" fill="white"/>
<path d="M19.4384 9.22971C19.6713 8.98203 20.0771 9.02916 20.247 9.32362L22.9798 14.0604C23.1088 14.2841 23.0491 14.5692 22.841 14.7222L10.0142 24.1556C9.5789 24.4758 9.05266 24.6485 8.51228 24.6485H6.11588C5.67169 24.6485 5.44222 24.1178 5.74647 23.7942L19.4384 9.22971Z" fill="#FF006A"/>
</svg>
