<svg width="393" height="180" viewBox="0 0 393 180" fill="none" xmlns="http://www.w3.org/2000/svg">
<path d="M369.141 69.4883C368.756 68.8232 367.878 68.6395 367.258 69.0943L316.843 106.071C315.837 106.809 316.36 108.401 317.608 108.401H380.478C385.453 108.401 388.562 103.021 386.071 98.7205L369.141 69.4883Z" fill="white"/>
<path d="M347.889 34.7657C348.379 34.2465 348.47 33.467 348.111 32.8495L330.898 3.21456C328.406 -1.07663 322.198 -1.07024 319.714 3.22607L264.508 98.7263C262.022 103.027 265.13 108.403 270.103 108.403H275.509C277.288 108.403 278.987 107.671 280.208 106.379L347.889 34.7657Z" fill="white"/>
<path d="M351.106 38.6156C351.203 38.5121 351.373 38.5318 351.444 38.6548L365.743 63.4036C365.797 63.4971 365.772 63.6162 365.685 63.6801L305.066 108.198C304.884 108.332 304.663 108.404 304.437 108.404H285.894C285.708 108.404 285.612 108.182 285.74 108.047L351.106 38.6156Z" fill="#FF006A"/>
<path d="M39.8451 84.7103L36.1763 65.1572C35.9772 64.1348 35.7497 62.9278 35.4937 61.5362C35.2377 60.1447 34.996 58.6395 34.7685 57.0207C34.1428 58.6395 33.5313 60.1447 32.9341 61.5362C32.3368 62.9278 31.8107 64.149 31.3556 65.1998L22.9515 84.7103H39.8451ZM56.9947 108.097H47.4387C46.358 108.097 45.519 107.842 44.9217 107.331C44.3245 106.819 43.9121 106.152 43.6846 105.328L41.4235 93.2728H19.2826L14.078 105.328C13.7083 106.067 13.1395 106.72 12.3716 107.288C11.6037 107.828 10.7221 108.097 9.72664 108.097H0L29.7772 46.2856H42.4047L56.9947 108.097Z" fill="white"/>
<path d="M88.2843 72.8677C87.943 73.3505 87.6018 73.7055 87.2605 73.9327C86.9476 74.1315 86.5494 74.2309 86.066 74.2309C85.5256 74.2309 84.9852 74.0889 84.4449 73.8049C83.9329 73.5209 83.3499 73.2227 82.6958 72.9103C82.0416 72.5695 81.288 72.2571 80.4348 71.9731C79.61 71.6891 78.6288 71.5471 77.4912 71.5471C75.3581 71.5471 73.7655 72.0015 72.7132 72.9103C71.6893 73.8191 71.1774 74.9551 71.1774 76.3182C71.1774 77.4258 71.5898 78.3204 72.4145 79.002C73.2393 79.6552 74.2774 80.2516 75.5288 80.7912C76.7802 81.3024 78.1311 81.8278 79.5815 82.3674C81.032 82.907 82.3829 83.6028 83.6343 84.4547C84.8857 85.3067 85.9238 86.4001 86.7485 87.7349C87.5733 89.0697 87.9857 90.7737 87.9857 92.8468C87.9857 95.0052 87.5591 97.05 86.7059 98.9811C85.8527 100.912 84.6155 102.602 82.9944 104.05C81.4017 105.499 79.4678 106.649 77.1925 107.501C74.9173 108.353 72.3719 108.779 69.5563 108.779C68.1627 108.779 66.7975 108.637 65.4608 108.353C64.1526 108.097 62.9012 107.728 61.7067 107.245C60.5406 106.734 59.4741 106.152 58.5071 105.499C57.5686 104.846 56.7723 104.136 56.1182 103.369L59.0191 98.9811C59.3604 98.47 59.7728 98.0724 60.2562 97.7884C60.7397 97.5044 61.3228 97.3624 62.0053 97.3624C62.631 97.3624 63.1998 97.547 63.7118 97.9162C64.2237 98.257 64.7925 98.6404 65.4182 99.0663C66.0439 99.4639 66.7833 99.8473 67.6365 100.217C68.5182 100.557 69.6558 100.728 71.0494 100.728C72.1017 100.728 73.026 100.6 73.8223 100.344C74.6471 100.06 75.3297 99.6911 75.8701 99.2367C76.4389 98.754 76.8512 98.2002 77.1072 97.5754C77.3916 96.9506 77.5338 96.2974 77.5338 95.6158C77.5338 94.3662 77.1214 93.4006 76.2967 92.719C75.4719 92.0374 74.4338 91.441 73.1824 90.9299C71.9595 90.4187 70.6228 89.9217 69.1723 89.4389C67.7219 88.9561 66.3709 88.3029 65.1196 87.4793C63.8966 86.6557 62.8728 85.5907 62.048 84.2843C61.2232 82.978 60.8108 81.2314 60.8108 79.0446C60.8108 77.0566 61.1806 75.1397 61.92 73.2937C62.6879 71.4193 63.7971 69.7579 65.2475 68.3096C66.698 66.8612 68.4898 65.6968 70.6228 64.8164C72.7843 63.936 75.2728 63.4958 78.0884 63.4958C80.9609 63.4958 83.5063 63.9928 85.7247 64.9868C87.9715 65.9524 89.8343 67.1878 91.3132 68.6929L88.2843 72.8677Z" fill="white"/>
<path d="M94.5748 98.896C94.5748 98.6972 94.5748 98.47 94.5748 98.2144C94.5748 97.9304 94.589 97.5328 94.6174 97.0216C94.6743 96.482 94.7454 95.7862 94.8307 94.9342C94.9445 94.0538 95.0867 92.9178 95.2573 91.5262L97.6037 72.6121H93.7642C93.1954 72.6121 92.7261 72.4133 92.3564 72.0157C92.0151 71.6181 91.9014 71.0217 92.0151 70.2265L92.5697 65.6258L99.2248 64.3478L102.851 52.9738C103.249 51.6958 104.117 51.0568 105.453 51.0568H111.767L110.103 64.433H120.384L119.403 72.6121H109.122L106.861 90.8873C106.719 92.0516 106.605 92.9746 106.52 93.6562C106.434 94.3378 106.363 94.8632 106.306 95.2324C106.278 95.6016 106.264 95.8572 106.264 95.9992C106.264 96.1128 106.264 96.198 106.264 96.2548C106.264 97.2488 106.491 98.044 106.946 98.6404C107.401 99.2083 108.084 99.4923 108.994 99.4923C109.506 99.4923 109.947 99.4355 110.317 99.3219C110.686 99.1799 110.999 99.0379 111.255 98.896C111.54 98.7256 111.795 98.5836 112.023 98.47C112.251 98.328 112.492 98.257 112.748 98.257C113.118 98.257 113.388 98.3422 113.559 98.5126C113.729 98.6546 113.9 98.9101 114.071 99.2793L116.63 104.902C114.981 106.18 113.175 107.146 111.212 107.799C109.25 108.452 107.273 108.779 105.283 108.779C102.04 108.779 99.4665 107.913 97.561 106.18C95.684 104.42 94.6885 101.992 94.5748 98.896Z" fill="white"/>
<path d="M137.31 99.9183C138.96 99.9183 140.439 99.4355 141.747 98.47C143.055 97.5044 144.164 96.2122 145.074 94.5934C145.984 92.9462 146.681 91.0435 147.165 88.8851C147.677 86.7267 147.933 84.4405 147.933 82.0266C147.933 78.6186 147.406 76.162 146.354 74.6569C145.302 73.1233 143.667 72.3565 141.448 72.3565C139.827 72.3565 138.348 72.8393 137.012 73.8049C135.703 74.7421 134.594 76.0201 133.684 77.6388C132.774 79.2576 132.063 81.1604 131.551 83.3472C131.067 85.5055 130.826 87.7917 130.826 90.2057C130.826 93.5568 131.352 96.0134 132.404 97.5754C133.456 99.1373 135.092 99.9183 137.31 99.9183ZM136.286 108.736C133.84 108.736 131.565 108.339 129.461 107.544C127.356 106.72 125.536 105.527 124 103.965C122.464 102.403 121.255 100.472 120.374 98.1718C119.521 95.8714 119.094 93.2444 119.094 90.2909C119.094 86.4569 119.72 82.907 120.971 79.641C122.222 76.3466 123.915 73.5067 126.048 71.1211C128.181 68.7355 130.669 66.8754 133.513 65.5406C136.357 64.1774 139.358 63.4958 142.515 63.4958C144.961 63.4958 147.222 63.9076 149.298 64.7312C151.402 65.5264 153.223 66.7192 154.758 68.3096C156.294 69.8715 157.503 71.8027 158.385 74.1031C159.266 76.4034 159.707 79.0304 159.707 81.984C159.707 85.7895 159.081 89.3253 157.83 92.5912C156.579 95.8572 154.872 98.683 152.711 101.069C150.578 103.454 148.089 105.328 145.245 106.692C142.429 108.055 139.443 108.736 136.286 108.736Z" fill="white"/>
<path d="M176.207 73.9753C177.317 71.9305 178.483 70.1839 179.706 68.7355C180.957 67.2872 182.251 66.1654 183.588 65.3702C184.924 64.5466 186.289 64.078 187.683 63.9644C189.077 63.8224 190.484 64.0638 191.906 64.6886L189.773 75.7219C188.095 75.0119 186.517 74.7137 185.038 74.8273C183.588 74.9409 182.237 75.5089 180.985 76.5312C179.762 77.5536 178.653 79.0446 177.658 81.0042C176.662 82.9638 175.795 85.4345 175.056 88.4165L172.667 108.097H161.105L166.438 64.1348H172.496C173.719 64.1348 174.672 64.433 175.354 65.0294C176.037 65.6258 176.378 66.5772 176.378 67.8836L176.207 73.9753Z" fill="white"/>
<path d="M206.402 64.1774L201.155 108.097H189.551L194.799 64.1774H206.402ZM208.962 51.6958C208.962 52.6898 208.749 53.6127 208.322 54.4647C207.924 55.3167 207.384 56.0693 206.701 56.7225C206.047 57.3757 205.279 57.8869 204.397 58.2561C203.544 58.6253 202.663 58.8099 201.752 58.8099C200.842 58.8099 199.961 58.6253 199.107 58.2561C198.283 57.8869 197.543 57.3757 196.889 56.7225C196.263 56.0693 195.751 55.3167 195.353 54.4647C194.984 53.6127 194.799 52.6898 194.799 51.6958C194.799 50.7302 194.998 49.8214 195.396 48.9694C195.794 48.089 196.306 47.3222 196.932 46.669C197.586 46.0158 198.325 45.5047 199.15 45.1355C200.003 44.7379 200.885 44.5391 201.795 44.5391C202.734 44.5391 203.63 44.7237 204.483 45.0929C205.364 45.4621 206.132 45.9732 206.786 46.6264C207.441 47.2796 207.967 48.0464 208.365 48.9268C208.763 49.7788 208.962 50.7018 208.962 51.6958Z" fill="white"/>
<path d="M236.816 71.7601C236.56 71.7317 236.304 71.7175 236.048 71.7175C235.792 71.7175 235.536 71.7175 235.28 71.7175C233.005 71.7175 230.914 72.2287 229.009 73.2511C227.103 74.2735 225.454 75.6651 224.06 77.4258C222.695 79.1866 221.614 81.2314 220.818 83.5602C220.05 85.8889 219.666 88.3455 219.666 90.9299C219.666 93.8834 220.121 96.0276 221.031 97.3624C221.941 98.6688 223.136 99.3219 224.615 99.3219C225.667 99.3219 226.705 98.9385 227.729 98.1718C228.781 97.405 229.762 96.3542 230.672 95.0194C231.582 93.6846 232.421 92.1226 233.189 90.3335C233.957 88.5159 234.626 86.5847 235.194 84.5399L236.816 71.7601ZM233.915 99.8331C232.038 102.588 229.933 104.76 227.601 106.351C225.297 107.941 222.752 108.736 219.965 108.736C218.343 108.736 216.793 108.424 215.315 107.799C213.864 107.146 212.584 106.18 211.475 104.902C210.366 103.596 209.484 101.963 208.83 100.004C208.204 98.0156 207.892 95.701 207.892 93.0598C207.892 90.4187 208.219 87.8627 208.873 85.3919C209.527 82.8928 210.465 80.5498 211.688 78.363C212.911 76.1762 214.39 74.1741 216.125 72.3565C217.888 70.5105 219.837 68.9343 221.97 67.628C224.131 66.3216 226.463 65.3134 228.966 64.6034C231.497 63.865 234.156 63.4958 236.944 63.4958C238.991 63.4958 241.039 63.652 243.087 63.9644C245.134 64.2484 247.154 64.7596 249.144 65.498L243.855 108.097H237.583C236.844 108.097 236.218 107.998 235.706 107.799C235.223 107.6 234.825 107.331 234.512 106.99C234.227 106.649 234.028 106.251 233.915 105.797C233.801 105.343 233.744 104.846 233.744 104.306L233.915 99.8331Z" fill="white"/>
<path d="M136.61 146.899C138.743 146.899 140.563 146.587 142.071 145.962C143.578 145.337 144.815 144.486 145.782 143.406C146.749 142.327 147.46 141.063 147.915 139.615C148.37 138.167 148.598 136.633 148.598 135.014C148.598 132.487 147.816 130.499 146.252 129.05C144.716 127.602 142.327 126.878 139.085 126.878H133.325L130.851 146.899H136.61ZM140.236 117.506C143.905 117.506 147.034 117.903 149.622 118.699C152.238 119.465 154.371 120.545 156.021 121.936C157.699 123.299 158.922 124.947 159.69 126.878C160.486 128.781 160.884 130.854 160.884 133.097C160.884 135.426 160.557 137.627 159.903 139.7C159.277 141.773 158.353 143.662 157.13 145.366C155.907 147.07 154.414 148.575 152.651 149.881C150.916 151.188 148.925 152.239 146.678 153.034C147.418 153.46 148.086 153.985 148.683 154.61C149.309 155.235 149.849 155.987 150.304 156.868L160.415 179.318H149.28C147.147 179.318 145.754 178.522 145.1 176.932L137.122 157.677C136.781 156.939 136.354 156.399 135.842 156.058C135.33 155.718 134.563 155.547 133.539 155.547H129.785L126.841 179.318H114.555L122.106 117.506H140.236Z" fill="white"/>
<path d="M203.365 135.398L198.032 179.318H192.06C189.273 179.318 187.879 177.997 187.879 175.356L188.007 171.394C185.846 174.291 183.485 176.449 180.925 177.869C178.394 179.261 175.763 179.957 173.033 179.957C171.185 179.957 169.521 179.587 168.042 178.849C166.563 178.111 165.34 177.031 164.373 175.611C163.406 174.192 162.724 172.459 162.325 170.414C161.927 168.341 161.899 165.97 162.24 163.3L165.525 135.398H177.299L173.972 163.3C173.659 165.941 173.787 167.816 174.356 168.923C174.953 170.003 176.019 170.542 177.555 170.542C178.579 170.542 179.631 170.258 180.712 169.69C181.821 169.094 182.874 168.256 183.869 167.177C184.893 166.098 185.831 164.805 186.685 163.3C187.566 161.767 188.291 160.063 188.86 158.188L191.633 135.398H203.365Z" fill="white"/>
<path d="M219.738 143.747C221.928 140.68 224.317 138.408 226.905 136.931C229.522 135.454 232.238 134.716 235.053 134.716C236.873 134.716 238.523 135.085 240.002 135.824C241.481 136.562 242.704 137.641 243.671 139.061C244.666 140.481 245.363 142.228 245.761 144.301C246.159 146.374 246.188 148.745 245.846 151.415L242.519 179.318H230.787L234.072 151.415C234.413 148.774 234.285 146.914 233.688 145.834C233.091 144.727 232.038 144.173 230.531 144.173C229.45 144.173 228.341 144.5 227.204 145.153C226.066 145.778 224.971 146.672 223.919 147.837C222.866 149.001 221.899 150.407 221.018 152.054C220.136 153.701 219.425 155.533 218.885 157.549L216.453 179.318H204.679L209.969 135.355H215.984C217.207 135.355 218.16 135.653 218.842 136.25C219.525 136.846 219.866 137.797 219.866 139.104L219.738 143.747Z" fill="white"/>
<path d="M263.755 143.747C265.945 140.68 268.334 138.408 270.922 136.931C273.539 135.454 276.255 134.716 279.07 134.716C280.891 134.716 282.54 135.085 284.019 135.824C285.498 136.562 286.721 137.641 287.688 139.061C288.683 140.481 289.38 142.228 289.778 144.301C290.176 146.374 290.205 148.745 289.864 151.415L286.536 179.318H274.804L278.089 151.415C278.43 148.774 278.302 146.914 277.705 145.834C277.108 144.727 276.056 144.173 274.548 144.173C273.468 144.173 272.358 144.5 271.221 145.153C270.083 145.778 268.988 146.672 267.936 147.837C266.884 149.001 265.917 150.407 265.035 152.054C264.153 153.701 263.442 155.533 262.902 157.549L260.47 179.318H248.696L253.986 135.355H260.001C261.224 135.355 262.177 135.653 262.859 136.25C263.542 136.846 263.883 137.797 263.883 139.104L263.755 143.747Z" fill="white"/>
<path d="M315.835 142.853C314.584 142.853 313.404 143.122 312.294 143.662C311.185 144.173 310.176 144.911 309.265 145.877C308.384 146.814 307.602 147.95 306.919 149.285C306.237 150.62 305.682 152.111 305.255 153.758C308.412 153.304 310.958 152.821 312.892 152.31C314.854 151.77 316.361 151.202 317.414 150.606C318.494 149.981 319.205 149.313 319.547 148.603C319.916 147.893 320.101 147.127 320.101 146.303C320.101 145.905 320.016 145.508 319.845 145.11C319.675 144.684 319.419 144.315 319.077 144.003C318.736 143.662 318.295 143.392 317.755 143.193C317.215 142.966 316.575 142.853 315.835 142.853ZM304.317 161.298C304.317 167.802 307.061 171.053 312.55 171.053C314.371 171.053 315.849 170.826 316.987 170.372C318.153 169.889 319.149 169.378 319.973 168.838C320.798 168.27 321.552 167.759 322.234 167.305C322.945 166.822 323.756 166.58 324.666 166.58C325.064 166.58 325.434 166.68 325.775 166.879C326.145 167.049 326.472 167.29 326.756 167.603L329.743 171.181C328.207 172.715 326.714 174.035 325.263 175.143C323.813 176.222 322.305 177.131 320.741 177.869C319.177 178.579 317.542 179.105 315.835 179.445C314.129 179.786 312.252 179.957 310.204 179.957C307.616 179.957 305.255 179.516 303.122 178.636C300.989 177.756 299.155 176.52 297.619 174.93C296.112 173.311 294.931 171.38 294.078 169.136C293.253 166.864 292.841 164.337 292.841 161.554C292.841 159.225 293.097 156.953 293.609 154.738C294.121 152.523 294.86 150.421 295.827 148.433C296.794 146.445 297.96 144.628 299.326 142.98C300.719 141.305 302.298 139.871 304.061 138.678C305.824 137.457 307.744 136.505 309.82 135.824C311.925 135.142 314.157 134.801 316.518 134.801C318.821 134.801 320.855 135.142 322.618 135.824C324.41 136.477 325.903 137.343 327.098 138.422C328.292 139.473 329.188 140.652 329.785 141.958C330.411 143.264 330.724 144.571 330.724 145.877C330.724 147.837 330.326 149.64 329.529 151.287C328.733 152.934 327.339 154.411 325.349 155.718C323.358 156.996 320.656 158.103 317.243 159.04C313.83 159.949 309.521 160.659 304.317 161.17V161.298Z" fill="white"/>
<path d="M347.04 145.195C348.149 143.151 349.315 141.404 350.538 139.956C351.79 138.507 353.084 137.386 354.42 136.59C355.757 135.767 357.122 135.298 358.516 135.185C359.909 135.043 361.317 135.284 362.739 135.909L360.606 146.942C358.928 146.232 357.35 145.934 355.871 146.047C354.42 146.161 353.07 146.729 351.818 147.751C350.595 148.774 349.486 150.265 348.491 152.224C347.495 154.184 346.628 156.655 345.888 159.637L343.499 179.318H331.938L337.271 135.355H343.329C344.552 135.355 345.504 135.653 346.187 136.25C346.87 136.846 347.211 137.797 347.211 139.104L347.04 145.195Z" fill="white"/>
<path d="M389.609 144.088C389.268 144.571 388.926 144.926 388.585 145.153C388.272 145.352 387.874 145.451 387.391 145.451C386.85 145.451 386.31 145.309 385.769 145.025C385.258 144.741 384.674 144.443 384.02 144.131C383.366 143.79 382.613 143.477 381.759 143.193C380.935 142.909 379.953 142.767 378.816 142.767C376.683 142.767 375.09 143.222 374.038 144.131C373.014 145.039 372.502 146.175 372.502 147.538C372.502 148.646 372.914 149.541 373.739 150.222C374.564 150.875 375.602 151.472 376.853 152.011C378.105 152.523 379.456 153.048 380.906 153.588C382.357 154.127 383.707 154.823 384.959 155.675C386.21 156.527 387.248 157.62 388.073 158.955C388.898 160.29 389.31 161.994 389.31 164.067C389.31 166.225 388.884 168.27 388.03 170.201C387.177 172.133 385.94 173.822 384.319 175.271C382.726 176.719 380.792 177.869 378.517 178.721C376.242 179.573 373.696 179.999 370.881 179.999C369.487 179.999 368.122 179.857 366.785 179.573C365.477 179.318 364.226 178.948 363.031 178.466C361.865 177.954 360.799 177.372 359.832 176.719C358.893 176.066 358.097 175.356 357.443 174.589L360.344 170.201C360.685 169.69 361.097 169.293 361.581 169.009C362.064 168.725 362.647 168.583 363.33 168.583C363.956 168.583 364.524 168.767 365.036 169.136C365.548 169.477 366.117 169.861 366.743 170.287C367.368 170.684 368.108 171.068 368.961 171.437C369.843 171.778 370.98 171.948 372.374 171.948C373.426 171.948 374.351 171.82 375.147 171.565C375.972 171.281 376.654 170.911 377.195 170.457C377.763 169.974 378.176 169.42 378.432 168.796C378.716 168.171 378.858 167.518 378.858 166.836C378.858 165.586 378.446 164.621 377.621 163.939C376.796 163.258 375.758 162.661 374.507 162.15C373.284 161.639 371.947 161.142 370.497 160.659C369.046 160.176 367.696 159.523 366.444 158.7C365.221 157.876 364.197 156.811 363.373 155.505C362.548 154.198 362.135 152.452 362.135 150.265C362.135 148.277 362.505 146.36 363.245 144.514C364.012 142.64 365.122 140.978 366.572 139.53C368.023 138.081 369.814 136.917 371.947 136.037C374.109 135.156 376.597 134.716 379.413 134.716C382.285 134.716 384.831 135.213 387.049 136.207C389.296 137.173 391.159 138.408 392.638 139.913L389.609 144.088Z" fill="white"/>
</svg>
